<?xml version="1.0" standalone="no"?>
<!DOCTYPE svg PUBLIC "-//W3C//DTD SVG 20010904//EN"
 "http://www.w3.org/TR/2001/REC-SVG-20010904/DTD/svg10.dtd">
<svg version="1.0" xmlns="http://www.w3.org/2000/svg"
 width="900.000000pt" height="900.000000pt" viewBox="0 0 900.000000 900.000000"
 preserveAspectRatio="xMidYMid meet">
<metadata>
Created by potrace 1.14, written by Peter Selinger 2001-2017
</metadata>
<g transform="translate(0.000000,900.000000) scale(0.100000,-0.100000)"
fill="#000000" stroke="none">
<path d="M3212 8343 c-123 -163 -172 -391 -123 -583 25 -101 65 -188 115 -253
21 -27 36 -51 34 -53 -3 -2 -38 -10 -80 -18 -308 -59 -532 -303 -574 -625 l-7
-53 54 7 c87 11 168 34 233 67 216 108 346 278 392 511 l17 85 61 -14 c276
-64 574 -211 772 -381 276 -238 459 -507 568 -836 67 -203 103 -461 91 -652
-13 -213 -59 -425 -133 -605 l-38 -95 -924 -5 -925 -5 -54 -30 c-200 -111
-199 -381 3 -500 39 -23 62 -28 137 -33 l89 -5 0 -41 c0 -38 14 -162 39 -361
12 -90 27 -214 106 -870 30 -253 62 -514 70 -580 8 -66 24 -194 35 -285 11
-91 33 -275 49 -410 17 -135 33 -272 36 -305 16 -154 71 -245 178 -296 l62
-29 1000 0 c1128 0 1054 -5 1147 78 87 79 82 52 183 897 15 121 44 364 66 540
56 465 117 965 139 1159 11 93 24 199 30 235 5 36 14 112 21 169 l11 102 57 0
c130 0 225 55 279 159 58 115 39 235 -52 327 -86 86 -72 84 -657 84 l-508 0
29 63 c91 203 143 458 144 713 l1 172 53 12 c139 31 314 159 402 293 174 266
146 628 -67 857 l-55 60 29 0 c47 0 143 28 221 65 41 19 78 32 83 29 5 -3 8
-1 7 3 -2 5 24 32 58 60 73 61 146 155 185 238 32 68 69 202 69 252 0 30 -3
33 -30 33 -45 0 -128 -19 -201 -46 -205 -76 -373 -261 -429 -472 l-16 -62 -13
52 c-45 180 -178 350 -345 442 -67 37 -179 73 -253 82 l-63 7 0 -40 c0 -117
83 -308 179 -414 120 -133 258 -203 463 -234 36 -6 38 -8 58 -73 78 -248 -12
-556 -209 -722 -53 -44 -158 -110 -175 -110 -6 0 -19 28 -29 63 -10 34 -34
100 -52 147 -19 47 -35 92 -37 100 -2 8 -6 17 -9 20 -3 3 -28 43 -54 90 -84
148 -197 302 -284 384 -17 16 -28 34 -24 39 3 6 1 7 -4 4 -14 -9 -35 17 -25
29 4 5 3 6 -1 3 -5 -4 -57 32 -116 80 -248 198 -514 319 -841 382 -94 19 -151
23 -310 23 -107 1 -212 -3 -233 -7 l-38 -8 36 47 c157 205 184 519 65 742 -33
63 -99 154 -115 158 -5 2 -29 -22 -53 -53z"/>
</g>
</svg>
